<svg width="21" height="21" viewBox="0 0 21 21" fill="none" xmlns="http://www.w3.org/2000/svg">
<path d="M6.62255 11.3046C7.79837 11.3046 8.74069 12.2561 8.74069 13.4402V16.283C8.74069 17.4589 7.79837 18.4179 6.62255 18.4179H3.80393C2.63645 18.4179 1.68579 17.4589 1.68579 16.283L1.68579 13.4402C1.68579 12.2561 2.63645 11.3046 3.80393 11.3046L6.62255 11.3046ZM16.246 11.3046C17.4135 11.3046 18.3641 12.2561 18.3641 13.4402V16.283C18.3641 17.4589 17.4135 18.4179 16.246 18.4179H13.4274C12.2515 18.4179 11.3092 17.4589 11.3092 16.283L11.3092 13.4402C11.3092 12.2561 12.2515 11.3046 13.4274 11.3046L16.246 11.3046ZM6.62255 1.73987C7.79837 1.73987 8.74069 2.69887 8.74069 3.87552V6.71832C8.74069 7.90248 7.79837 8.85314 6.62255 8.85314H3.80393C2.63645 8.85314 1.68579 7.90248 1.68579 6.71832L1.68579 3.87552C1.68579 2.69887 2.63645 1.73987 3.80393 1.73987L6.62255 1.73987ZM16.246 1.73987C17.4135 1.73987 18.3641 2.69887 18.3641 3.87552V6.71832C18.3641 7.90248 17.4135 8.85314 16.246 8.85314H13.4274C12.2515 8.85314 11.3092 7.90248 11.3092 6.71832L11.3092 3.87552C11.3092 2.69887 12.2515 1.73987 13.4274 1.73987L16.246 1.73987Z" fill="#1A1A1A"/>
</svg>
