<svg width="21" height="21" viewBox="0 0 21 21" fill="none" xmlns="http://www.w3.org/2000/svg">
<path d="M13.9087 1.7865C16.7429 1.7865 18.3429 3.394 18.3512 6.22817L18.3512 14.0115C18.3512 16.8448 16.7429 18.4532 13.9087 18.4532L6.12624 18.4532C3.29207 18.4532 1.68457 16.8448 1.68457 14.0115L1.68457 6.22817C1.68457 3.394 3.29207 1.7865 6.12624 1.7865L13.9087 1.7865ZM10.4346 5.22817C10.2004 5.0865 9.91707 5.0865 9.6929 5.22817C9.46707 5.369 9.3429 5.62817 9.36707 5.8865L9.36707 14.3782C9.40957 14.7365 9.70874 15.0032 10.0587 15.0032C10.4179 15.0032 10.7171 14.7365 10.7504 14.3782L10.7504 5.8865C10.7837 5.62817 10.6596 5.369 10.4346 5.22817ZM6.5429 7.9615C6.3179 7.81983 6.03374 7.81983 5.80957 7.9615C5.58374 8.10317 5.45957 8.36067 5.48457 8.61983L5.48457 14.3782C5.51707 14.7365 5.81707 15.0032 6.1754 15.0032C6.53457 15.0032 6.83374 14.7365 6.86707 14.3782L6.86707 8.61983C6.8929 8.36067 6.76707 8.10317 6.5429 7.9615ZM14.2587 10.9865C14.0346 10.8448 13.7512 10.8448 13.5179 10.9865C13.2921 11.1282 13.1679 11.3773 13.2012 11.6448L13.2012 14.3782C13.2346 14.7365 13.5337 15.0032 13.8929 15.0032C14.2429 15.0032 14.5421 14.7365 14.5846 14.3782L14.5846 11.6448C14.6087 11.3773 14.4846 11.1282 14.2587 10.9865Z" fill="#A7A7A7"/>
</svg>
