<svg width="19" height="19" viewBox="0 0 19 19" fill="none" xmlns="http://www.w3.org/2000/svg">
<g id="Logout">
<g id="Iconly/Bold/Logout">
<g id="Logout_2">
<path id="Vector" d="M9.51073 2.16469C11.3739 2.16469 12.8935 3.65823 12.8935 5.497V9.092L8.31186 9.092C7.9835 9.092 7.72388 9.34717 7.72388 9.6699C7.72388 9.98512 7.9835 10.2478 8.31186 10.2478L12.8935 10.2478L12.8935 13.8353C12.8935 15.6741 11.3739 17.1751 9.49545 17.1751H5.77667C3.90582 17.1751 2.38623 15.6816 2.38623 13.8428L2.38623 5.50451C2.38623 3.65823 3.91345 2.16469 5.7843 2.16469L9.51073 2.16469ZM14.8 7.08075C15.0252 6.84809 15.3929 6.84809 15.6181 7.07325L17.8096 9.25726C17.9222 9.36984 17.9822 9.51244 17.9822 9.67005C17.9822 9.82015 17.9222 9.97026 17.8096 10.0753L15.6181 12.2593C15.5055 12.3719 15.3554 12.432 15.2128 12.432C15.0627 12.432 14.9126 12.3719 14.8 12.2593C14.5748 12.0342 14.5748 11.6664 14.8 11.4413L16.0008 10.2479H12.8937V9.09215H16.0008L14.8 7.89882C14.5748 7.67366 14.5748 7.30591 14.8 7.08075Z" fill="white"/>
</g>
</g>
</g>
</svg>
