<svg width="21" height="21" viewBox="0 0 21 21" fill="none" xmlns="http://www.w3.org/2000/svg">
<path d="M14.1364 2.66974C15.2539 2.66974 16.3289 3.11141 17.1198 3.90391C17.9114 4.69474 18.3539 5.76141 18.3539 6.87807L18.3539 13.4614C18.3539 15.7864 16.4623 17.6697 14.1364 17.6697L5.90392 17.6697C3.57809 17.6697 1.68726 15.7864 1.68726 13.4614L1.68726 6.87807C1.68726 4.55307 3.56976 2.66974 5.90392 2.66974L14.1364 2.66974ZM15.0789 7.00307C14.9039 6.99391 14.7373 7.05307 14.6114 7.16974L10.8539 10.1697C10.3706 10.5706 9.67809 10.5706 9.18726 10.1697L5.43726 7.16974C5.17809 6.97807 4.81976 7.00307 4.60392 7.22807C4.37892 7.45307 4.35392 7.8114 4.54476 8.0614L4.65392 8.16974L8.44559 11.1281C8.91226 11.4947 9.47809 11.6947 10.0706 11.6947C10.6614 11.6947 11.2373 11.4947 11.7031 11.1281L15.4623 8.11974L15.5289 8.05307C15.7281 7.81141 15.7281 7.4614 15.5198 7.21974C15.4039 7.09557 15.2448 7.01974 15.0789 7.00307Z" fill="#A7A7A7"/>
</svg>
