<svg width="21" height="21" viewBox="0 0 21 21" fill="none" xmlns="http://www.w3.org/2000/svg">
<path d="M13.0626 1.81238C13.4164 1.81155 13.6962 2.08641 13.697 2.45289L13.6978 3.07758C15.9933 3.25749 17.5097 4.82171 17.5122 7.22051L17.5212 14.242C17.5245 16.8574 15.8814 18.4665 13.2477 18.4707L6.81448 18.479C4.19724 18.4824 2.53359 16.8349 2.5303 14.212L2.52125 7.27298C2.51796 4.85836 3.98085 3.2983 6.27639 3.08758L6.27557 2.46289C6.27474 2.09641 6.54626 1.82071 6.90828 1.82071C7.2703 1.81988 7.54181 2.09474 7.54264 2.46122L7.54346 3.04427L12.4307 3.0376L12.4299 2.45456C12.4291 2.08808 12.7006 1.81321 13.0626 1.81238ZM13.3983 13.639H13.3901C13.0116 13.6481 12.708 13.9655 12.7162 14.3486C12.7171 14.7317 13.0223 15.0474 13.4008 15.0558C13.7867 15.0549 14.0993 14.7376 14.0985 14.3461C14.0985 13.9546 13.785 13.639 13.3983 13.639ZM6.61866 13.6398C6.24019 13.6565 5.94399 13.9738 5.94481 14.3569C5.96209 14.7401 6.27474 15.0399 6.65322 15.0224C7.02429 15.0058 7.31966 14.6884 7.30239 14.3053C7.29416 13.9305 6.98891 13.639 6.61866 13.6398ZM10.0085 13.6356C9.63001 13.6531 9.33464 13.9696 9.33464 14.3528C9.35191 14.7359 9.66457 15.0349 10.043 15.0183C10.4133 15.0008 10.7095 14.6843 10.6922 14.3003C10.684 13.9263 10.3787 13.6348 10.0085 13.6356ZM6.61455 10.6413C6.23607 10.658 5.9407 10.9753 5.94152 11.3584C5.95797 11.7416 6.27145 12.0414 6.64993 12.0239C7.02017 12.0073 7.31555 11.6899 7.29827 11.3068C7.29004 10.932 6.98562 10.6405 6.61455 10.6413ZM10.0052 10.6121C9.62672 10.6288 9.33052 10.9461 9.33134 11.3293C9.3478 11.7124 9.66128 12.0114 10.0398 11.9948C10.41 11.9773 10.7054 11.6608 10.6889 11.2776C10.6799 10.9028 10.3754 10.6113 10.0052 10.6121ZM13.395 10.6163C13.0165 10.6246 12.7203 10.9328 12.7212 11.316V11.3251C12.7294 11.7083 13.0421 11.9989 13.4214 11.9906C13.7916 11.9815 14.087 11.6641 14.0787 11.281C14.0615 10.9145 13.7644 10.6155 13.395 10.6163ZM12.4324 4.32029L7.5451 4.32696L7.54593 5.00079C7.54593 5.35977 7.27523 5.64296 6.91321 5.64296C6.55119 5.6438 6.27886 5.36144 6.27886 5.00245L6.27803 4.36111C4.67363 4.52186 3.78585 5.46472 3.78832 7.27132L3.78914 7.53035L16.2459 7.51369V7.22217C16.2106 5.4314 15.3121 4.49187 13.6994 4.35194L13.7003 4.99329C13.7003 5.35144 13.4214 5.63547 13.0676 5.63547C12.7055 5.6363 12.4332 5.35311 12.4332 4.99496L12.4324 4.32029Z" fill="#A7A7A7"/>
</svg>
