<svg width="21" height="21" viewBox="0 0 21 21" fill="none" xmlns="http://www.w3.org/2000/svg">
<path d="M13.9056 1.77357C15.1044 1.69864 16.2865 2.11488 17.1773 2.9307C17.9931 3.82145 18.4094 5.00356 18.3428 6.21064L18.3428 13.9859C18.4177 15.193 17.9931 16.3751 17.1856 17.2659C16.2949 18.0817 15.1044 18.4979 13.9056 18.423L6.13029 18.423C4.9232 18.4979 3.74108 18.0817 2.85033 17.2659C2.0345 16.3751 1.61826 15.193 1.69318 13.9859L1.69318 6.21064C1.61826 5.00356 2.0345 3.82145 2.85033 2.9307C3.74108 2.11488 4.9232 1.69864 6.13029 1.77357L13.9056 1.77357ZM13.6892 5.57796C13.1731 5.06183 12.3406 5.06183 11.8245 5.57796L11.2667 6.14404C11.1834 6.22729 11.1834 6.36881 11.2667 6.45206C11.2667 6.45206 11.283 6.4683 11.3121 6.49721L11.5169 6.70086C11.6353 6.81871 11.7832 6.96588 11.9316 7.11387L12.435 7.61704C12.5401 7.72256 12.6098 7.79326 12.6153 7.80066C12.7069 7.90056 12.7652 8.03376 12.7652 8.1836C12.7652 8.48329 12.5237 8.73303 12.2157 8.73303C12.0742 8.73303 11.941 8.67476 11.8494 8.58319L10.4592 7.20128C10.3926 7.13469 10.276 7.13469 10.2094 7.20128L6.23852 11.1722C5.9638 11.4469 5.80563 11.8132 5.7973 12.2044L5.74735 14.1774C5.74735 14.2856 5.78065 14.3855 5.85558 14.4604C5.9305 14.5354 6.0304 14.577 6.13862 14.577H8.09495C8.49453 14.577 8.87748 14.4188 9.16884 14.1358L14.7714 8.51659C15.2792 8.00046 15.2792 7.16799 14.7714 6.66018L13.6892 5.57796Z" fill="#A7A7A7"/>
</svg>
