<svg width="21" height="21" viewBox="0 0 21 21" fill="none" xmlns="http://www.w3.org/2000/svg">
<path d="M10.6174 1.87289C11.2476 1.87289 11.8182 2.22289 12.1333 2.73956C12.2866 2.98956 12.3888 3.29789 12.3632 3.62289C12.3462 3.87289 12.4228 4.12289 12.5591 4.35623C12.9934 5.06456 13.9558 5.33123 14.7052 4.93123C15.5483 4.44789 16.6129 4.73956 17.0983 5.56456L17.6689 6.54789C18.1628 7.37289 17.8903 8.43123 17.0387 8.90623C16.3148 9.33123 16.0593 10.2729 16.4936 10.9896C16.6299 11.2146 16.7832 11.4062 17.0217 11.5229C17.3197 11.6812 17.5497 11.9312 17.7115 12.1812C18.0266 12.6979 18.001 13.3312 17.6944 13.8896L17.0983 14.8896C16.7832 15.4229 16.1956 15.7562 15.5909 15.7562C15.2928 15.7562 14.9607 15.6729 14.6882 15.5062C14.4668 15.3646 14.2113 15.3146 13.9387 15.3146C13.0956 15.3146 12.3888 16.0062 12.3632 16.8312C12.3632 17.7896 11.5797 18.5396 10.6004 18.5396H9.44213C8.45424 18.5396 7.67074 17.7896 7.67074 16.8312C7.65371 16.0062 6.94685 15.3146 6.10374 15.3146C5.8227 15.3146 5.56721 15.3646 5.3543 15.5062C5.08178 15.6729 4.74113 15.7562 4.45157 15.7562C3.8384 15.7562 3.25077 15.4229 2.93567 14.8896L2.34804 13.8896C2.03294 13.3479 2.01591 12.6979 2.33101 12.1812C2.46727 11.9312 2.72276 11.6812 3.01232 11.5229C3.25077 11.4062 3.40407 11.2146 3.54884 10.9896C3.97466 10.2729 3.71917 9.33123 2.99528 8.90623C2.15217 8.43123 1.87965 7.37289 2.36508 6.54789L2.93567 5.56456C3.42962 4.73956 4.48564 4.44789 5.33727 4.93123C6.07819 5.33123 7.04053 5.06456 7.47486 4.35623C7.61112 4.12289 7.68777 3.87289 7.67074 3.62289C7.65371 3.29789 7.74739 2.98956 7.9092 2.73956C8.2243 2.22289 8.79489 1.88956 9.41658 1.87289L10.6174 1.87289ZM10.0298 7.85623C8.6927 7.85623 7.61112 8.90623 7.61112 10.2146C7.61112 11.5229 8.6927 12.5646 10.0298 12.5646C11.3668 12.5646 12.4228 11.5229 12.4228 10.2146C12.4228 8.90623 11.3668 7.85623 10.0298 7.85623Z" fill="#A7A7A7"/>
</svg>
